<?xml version="1.0" standalone="no"?>
<!DOCTYPE svg PUBLIC "-//W3C//DTD SVG 20010904//EN"
 "http://www.w3.org/TR/2001/REC-SVG-20010904/DTD/svg10.dtd">
<svg version="1.0" xmlns="http://www.w3.org/2000/svg"
 width="521.000000pt" height="522.000000pt" viewBox="0 0 521.000000 522.000000"
 preserveAspectRatio="xMidYMid meet">

<g transform="translate(0.000000,522.000000) scale(0.100000,-0.100000)"
fill="#000000" stroke="none">
<path d="M2495 3975 c-173 -32 -358 -131 -452 -240 l-39 -46 -45 44 c-99 100
-255 86 -362 -32 -21 -23 -37 -50 -37 -61 0 -11 24 -39 59 -68 l59 -50 -63 6
c-108 8 -195 -35 -254 -127 -47 -72 -61 -125 -72 -261 -8 -94 -15 -136 -32
-170 -27 -54 -83 -90 -143 -90 -28 0 -47 -6 -59 -20 -43 -47 27 -234 125 -331
l56 -56 -38 -54 c-55 -81 -72 -143 -66 -251 5 -77 11 -99 43 -166 79 -159 236
-277 388 -291 l71 -6 -145 -129 c-79 -71 -149 -139 -156 -150 -30 -51 0 -140
55 -165 39 -18 97 -13 128 11 16 12 93 80 172 150 78 70 144 128 146 128 2 0
31 -26 64 -58 68 -64 166 -126 270 -170 243 -104 622 -122 940 -47 305 73 542
221 633 395 33 63 34 68 36 195 l1 130 70 72 c114 117 170 241 156 345 -9 68
-60 148 -109 173 -22 11 -42 21 -44 23 -3 1 25 30 61 62 132 119 228 281 249
418 19 126 -7 160 -95 123 -59 -26 -126 -38 -126 -23 0 6 5 14 10 17 18 11 57
98 69 153 16 77 14 147 -5 166 -19 19 -9 19 -91 0 -100 -23 -213 -15 -335 26
-121 40 -204 87 -388 219 -171 122 -296 185 -404 206 -93 18 -206 18 -301 0z
m1443 -577 c-13 -59 -53 -129 -99 -174 -38 -37 -43 -39 -107 -39 -66 0 -67 -1
-70 -28 -3 -25 2 -30 53 -53 88 -38 185 -50 273 -32 l73 15 -7 -31 c-18 -90
-114 -233 -205 -307 l-44 -36 -1 76 c0 81 -18 132 -53 151 -47 25 -162 4 -298
-53 -144 -61 -261 -151 -324 -248 -17 -27 -36 -49 -43 -49 -22 0 -132 58 -181
95 -27 21 -98 83 -156 137 -58 54 -130 116 -160 139 -155 116 -332 148 -458
84 -27 -13 -52 -29 -55 -34 -3 -4 -45 -6 -94 -3 -148 8 -183 -26 -190 -185 -5
-105 5 -130 60 -159 l33 -17 -25 -16 c-47 -30 -152 -136 -177 -178 -14 -24
-27 -43 -29 -43 -2 0 -11 14 -19 30 -29 55 -86 86 -213 115 -167 39 -225 77
-268 180 l-16 39 34 -26 c64 -48 100 -62 168 -62 77 0 136 26 173 76 13 18 48
80 78 138 108 209 193 246 390 165 34 -14 63 -25 65 -25 1 0 7 21 13 46 18 69
47 121 103 180 65 69 130 98 223 98 96 0 165 -25 411 -151 237 -121 329 -157
435 -172 74 -10 149 -6 149 9 0 4 -11 32 -25 62 -33 71 -41 136 -25 193 14 51
21 55 43 21 26 -39 94 -66 168 -66 83 0 151 31 227 104 47 44 67 57 107 64 78
15 74 17 63 -30z m-1530 -419 c54 -26 99 -64 237 -199 174 -171 249 -229 358
-281 l62 -29 2 -64 c1 -70 15 -104 73 -181 77 -104 93 -155 66 -218 -38 -90
-130 -111 -257 -58 -86 36 -99 38 -99 12 0 -67 113 -141 214 -141 206 1 314
199 209 381 -2 3 13 3 33 1 63 -8 104 31 104 99 0 31 -37 79 -62 79 -7 0 -5 5
5 11 26 15 80 3 103 -22 13 -14 21 -42 24 -82 6 -74 24 -84 70 -39 24 25 30
39 30 74 0 41 -28 104 -53 120 -11 7 18 21 67 34 23 5 23 5 29 -128 3 -91 15
-184 37 -293 50 -248 31 -339 -94 -459 -235 -227 -669 -326 -1071 -245 -99 20
-260 78 -323 116 l-32 20 88 6 c184 13 328 87 445 226 48 57 112 189 126 259
25 122 7 289 -42 393 l-24 48 28 6 c46 10 55 29 40 83 -48 185 -281 365 -586
453 -41 12 -72 26 -69 30 10 17 71 28 132 25 46 -3 81 -13 130 -37z m-289
-418 c37 -10 143 -31 235 -47 l167 -27 45 -50 c104 -116 148 -291 109 -440
-60 -229 -250 -378 -481 -378 -189 0 -354 107 -440 286 -114 238 -16 525 221
648 61 32 59 32 144 8z m1717 -37 c22 -11 40 -31 55 -61 42 -87 7 -210 -89
-313 -58 -62 -64 -60 -81 20 -17 81 11 175 69 223 37 32 40 57 5 57 -36 0 -68
-18 -90 -50 -23 -34 -35 -23 -35 33 0 50 15 76 53 92 42 19 72 18 113 -1z
m-614 -91 c4 -2 0 -16 -9 -30 -9 -14 -20 -44 -23 -67 l-5 -41 -33 44 c-21 29
-32 55 -32 78 l0 34 48 -7 c26 -3 50 -8 54 -11z m-1699 -14 c21 -5 53 -23 71
-40 l34 -29 -18 -58 c-12 -37 -23 -56 -32 -53 -7 2 -36 9 -65 14 -46 9 -56 7
-100 -14 -27 -13 -50 -32 -51 -42 -4 -17 2 -18 70 -12 57 5 83 3 111 -9 34
-14 37 -18 37 -58 1 -66 26 -190 48 -242 24 -53 23 -53 -63 -31 -124 33 -222
113 -273 223 -71 156 -13 307 138 353 36 10 50 10 93 -2z"/>
<path d="M3033 1734 c-137 -71 -213 -135 -213 -178 0 -26 26 -18 100 30 87 56
186 103 234 111 32 5 36 3 36 -15 0 -30 17 -36 45 -18 33 22 35 78 3 100 -43
30 -109 20 -205 -30z"/>
<path d="M2156 2470 c-16 -5 -45 -22 -65 -38 -20 -16 -54 -38 -76 -50 -22 -11
-57 -38 -77 -59 -113 -117 -124 -309 -25 -439 93 -123 260 -165 401 -101 72
33 117 76 156 148 57 107 52 236 -13 336 -17 26 -43 70 -57 98 -34 67 -90 105
-161 110 -29 3 -67 0 -83 -5z m124 -152 c25 -10 55 -29 68 -41 67 -62 97 -173
72 -262 -23 -84 -113 -163 -204 -180 l-38 -8 6 159 6 159 -67 -137 c-36 -76
-71 -138 -76 -138 -6 0 -30 20 -53 45 -134 139 -67 370 123 421 55 15 99 10
163 -18z"/>
<path d="M2096 2287 c-36 -26 4 -84 42 -61 23 15 26 38 7 58 -20 19 -26 20
-49 3z"/>
<path d="M2282 2238 c-28 -28 -1 -75 38 -63 14 4 20 15 20 35 0 36 -33 53 -58
28z"/>
<path d="M2008 2189 c-21 -12 -24 -69 -6 -87 20 -20 76 -15 88 7 31 59 -25
114 -82 80z"/>
<path d="M2273 2104 c-15 -24 -15 -29 -2 -53 25 -44 94 -41 105 4 16 64 -67
103 -103 49z"/>
<path d="M2012 2028 c-25 -25 -6 -68 30 -68 9 0 22 9 28 19 13 25 13 27 -6 45
-19 19 -36 20 -52 4z"/>
<path d="M2227 1973 c-4 -3 -7 -17 -7 -29 0 -41 60 -55 74 -18 13 35 -41 73
-67 47z"/>
</g>
</svg>
